<svg width="390" height="260" viewBox="0 0 390 260" fill="none" xmlns="http://www.w3.org/2000/svg">
<g clip-path="url(#clip0_100241_861)">
<path d="M0 0H390V260H0V0Z" fill="#EE5C5C"/>
<path d="M121.82 135.6C124.28 135.2 125.97 133.79 128.23 133.76C130.79 133.72 133.25 133.76 135.29 135.26C136.95 136.5 138.67 136.46 140.33 136.4C141.16 136.02 141.63 135.51 141.77 134.87C143.01 128.84 143.2 122.84 141.38 116.9C139.655 111.137 137.805 105.412 135.83 99.73C134.74 96.63 133.28 93.7 131.9 90.73C129.513 85.3251 128.13 79.5305 127.82 73.63C127.44 67.37 127.76 60.95 129.67 54.8C130.21 53.1 130.25 51.22 130.72 49.43C134.04 36.73 142.56 28.78 154.02 23.36C158.976 20.9242 164.326 19.3903 169.82 18.83C176.78 18.19 183.35 19.37 189.42 23.01C190.44 23.61 191.49 24.16 192.39 24.79C199.89 31.79 204.58 40.21 205.47 50.74C208.06 49.84 209.14 47.71 210.83 46.37C216.48 41.84 223.09 39.44 229.76 36.99C234.26 35.36 239.05 35.55 243.48 33.99C247.03 35.04 250.48 33.63 253.98 33.69C261.51 33.79 268.51 35.65 275.08 39.32C281.75 43.02 287.53 47.68 291.71 54.09C292.89 55.91 293.37 58.21 294.11 60.32C296.94 68.32 298.67 76.59 298.38 85.08C298.06 94.15 297.2 103.24 293.91 111.8C290.997 119.553 286.731 126.728 281.31 132.99C275.4 139.75 268.21 144.77 261.45 150.39C256.82 154.21 251.37 157.02 246.29 160.31C242.08 163.02 237.35 164.68 232.92 166.88C227.62 169.5 222.07 171.45 216.61 173.62C211.79 175.53 206.71 176.84 201.8 178.53C194.87 180.96 187.66 182.33 180.6 184.25C176.84 185.27 172.92 185.78 169.02 186.42C165.06 187.09 161.04 187.6 156.86 188.24C157.98 194.59 161.14 200.59 159.13 207.32C160.88 208.79 161.01 210.9 160.95 212.88C170.3 220.02 175.28 230.56 183.07 238.44C182.24 241.06 180.07 240.54 178.6 240.9C174.67 241.85 171.03 241.47 168.67 237.42C167.07 234.71 164.97 232.28 163.44 229.54C161.43 225.96 158.59 222.99 156.32 219.61C154.6 216.99 151.57 216.1 148.85 215.78C144.797 215.315 140.936 213.798 137.65 211.38C136.05 210.23 134.39 209.14 132.99 207.8C127.72 202.82 121.72 198.7 116.49 193.63C110.616 187.964 105.354 181.696 100.79 174.93C96.6101 168.63 93.4101 161.59 92.7401 153.83C92.4201 149.97 93.2901 146.04 95.4601 142.98C98.0401 139.31 101.9 137.27 106.91 138.61C107.87 136.72 108.89 134.91 110.78 133.79C112.56 132.73 114.73 133.47 116.2 132.39C118.79 132.57 120.2 134.2 121.82 135.67V135.61V135.6ZM113.17 175.28C113.17 176.84 113.87 177.7 115.53 177.7C115.28 178.57 115.59 179.14 116.39 179.46C116.49 179.71 116.69 179.91 116.94 180C117.29 180.86 117.89 181.47 118.72 181.85L119.3 182.45C121.28 186.45 125.17 188.59 128.2 191.45C130.15 193.28 132.35 194.85 134.36 196.73C137.65 199.85 141.19 202.85 145.72 204.23C148.79 205.15 149.07 205.09 151.31 202.38C151.82 197.84 150.99 193.6 149.24 189.51C145.47 189.64 141.89 189.03 138.57 190.37C137.71 189.87 137.04 189.45 137.07 188.49C137.699 187.521 138.615 186.773 139.69 186.35H145.72C145.28 184.75 147.16 185.14 147.48 183.64L137.88 167.59C139.25 166.95 139.72 167.55 140.3 168.42C142.47 171.7 144.8 174.86 146.55 178.41C147.74 180.74 148.85 183.13 151.02 184.88C155.62 184.53 160.18 185.08 164.81 184.15C167.84 183.55 170.91 182.81 174.01 182.43C178.25 181.88 182.43 180.9 186.58 179.87C189.35 179.17 192.07 178.41 194.81 177.54C201.13 175.57 207.48 173.62 213.74 171.44C220.02 169.28 226.38 167.08 232.24 163.98C237.67 161.11 244.12 159.93 248.11 154.63C248.33 154.34 248.81 154.28 249.16 154.09C254.18 151.47 258.71 148.15 263.3 144.89C266.27 142.76 268.86 140.2 271.73 138C277.31 133.72 282.1 128.71 285.23 122.3C285.68 121.37 286.31 120.51 286.83 119.58C289.882 114.397 291.997 108.717 293.08 102.8C293.53 100.37 293.72 97.88 294.17 95.46C294.9 91.4 294.8 87.22 295.28 83.1C295.88 78.13 295.03 73.11 293.53 68.36C291.77 62.84 290.43 57.28 286.41 52.46C281.14 46.18 274.57 42.35 267.39 39.19C263.43 37.43 259.03 37.02 254.75 36.95C247.15 36.83 239.62 37.43 232.22 39.6C225.22 41.65 218.68 44.3 212.84 48.67C209.4 51.22 206.27 53.87 204.99 58.17C204.86 58.66 204.49 59.1 203.75 59.07C202.69 58.47 201.99 57.67 202.5 56.27C202.66 55.78 202.98 55.27 202.92 54.8C202.47 51.44 202.25 48 201.35 44.74C199.98 39.7 198.29 34.72 193.92 31.27C193.5 30.95 193.18 30.51 192.83 30.12C187.79 23.96 180.89 21.63 173.36 21.92C168.26 22.12 163.06 22.66 158.04 24.76C151.15 27.66 145.02 31.46 140.33 37.21C138.32 39.67 136.43 42.35 135.35 45.61C133.28 51.83 131.65 58.08 131.2 64.69C131.04 66.92 131.87 69.19 131.27 71.14C130.37 74.01 131.37 76.63 131.71 79.21C132.54 85.02 134.97 90.41 137.11 95.84C139.21 101.14 141.67 106.34 143.14 111.86C144.61 117.41 145.82 123.03 145.79 128.84C145.79 131.27 144.67 133.44 144.89 135.61C143.993 136.966 142.886 138.171 141.61 139.18C136.82 140.55 133.53 137.97 130.05 136.4C127.18 137.3 123.8 136.85 121.85 140.4C121.92 141.86 121.85 143.71 122.14 145.53C122.39 147.19 124.34 148.56 123 150.83C119.74 149.04 119.33 145.18 116.9 142.88C115.4 142.28 114.1 142.4 113.2 144.1C113.1 145.44 114.25 147.1 112.47 148.18C104.42 146.18 102.07 147.64 101.37 153.19C102.13 159.86 105.51 165.19 108.92 170.43C109.85 171.86 110.49 173.81 112.4 174.45C112.34 175.02 112.53 175.37 113.2 175.28H113.17ZM111 146.18C111.1 143.49 111.54 141.83 113.2 140.74C115.05 139.56 116.87 140.43 118.92 140.74C118.53 138.7 117.54 137.14 117.7 135.29C115.15 134.14 113.14 135.09 111.22 136.28C110.401 136.714 109.775 137.441 109.468 138.316C109.16 139.19 109.193 140.149 109.56 141C108.38 142.18 107.49 141.64 106.44 141.32C102.96 140.3 98.5201 142.25 97.1401 145.41C95.564 148.908 95.1538 152.821 95.9701 156.57C96.4101 158.62 97.2701 160.53 97.9501 162.48C100.12 168.93 103.91 174.51 107.58 180.03C110.46 184.37 114.54 187.92 118.12 191.81C119.36 193.15 120.48 194.65 121.88 195.8C125.11 198.48 128.46 201.07 131.81 203.55C134.97 205.92 138.19 208.21 141.51 210.35C144.86 212.55 148.37 213.58 152.21 211.22C153.51 210.42 155.11 210.07 156.45 209.56C158.94 203.3 157.41 191.72 153.74 188.33C152.84 190.15 152.81 190.15 153.13 191.49C153.77 194.17 154.43 196.85 154.37 199.66C154.21 204.74 153.07 206.24 148.31 207.76C142.51 206.78 138.06 203.52 133.81 199.95C128.545 195.607 123.499 191.004 118.69 186.16C114.61 181.98 111.03 177.42 107.49 172.86C104.712 169.352 102.486 165.44 100.89 161.26C99.7301 158.2 98.4601 155.2 98.8701 151.76C99.3201 148.02 101.62 145.53 105.41 145.09C107.329 144.742 109.31 145.116 110.97 146.14L111 146.17V146.18ZM177.26 236.14C171.7 228.16 166.15 220.28 158.36 214.34C157.72 214.95 157.02 215.21 156.96 216.1C161.52 220.85 164.65 226.89 169.5 231.42C168.8 234.42 171.2 235.57 172.4 237.29C174.16 237.39 175.76 237.74 177.29 236.17L177.26 236.14ZM253.76 175.92C258.26 176.04 262.16 176.81 264.61 180.9C267.218 177.672 270.634 175.192 274.51 173.71C280.03 171.58 287.5 172.82 290.46 179.65C292.592 184.343 293.325 189.551 292.57 194.65C291.97 198.45 290.05 201.55 287.43 204.19C283.268 208.405 278.595 212.084 273.52 215.14C268.09 218.4 259.35 221.49 253.76 222.04C252.04 222.2 250.47 221.17 248.69 221.43C247.44 219.58 245.53 218.46 244.89 216.54C245.53 210.99 245.53 205.66 244.76 200.3C244.09 195.6 243.96 190.85 245.02 186.16C246.1 181.25 248.75 177.61 253.79 175.92H253.76ZM249.93 218.94C252.52 218.94 254.63 219.39 256.44 218.84C262.15 217.15 267.9 215.59 273.14 212.36C276.61 210.19 279.64 207.48 282.84 205.02C285.489 203.051 287.578 200.424 288.9 197.4C289.25 196.57 289.67 195.77 289.7 194.81C289.86 190.6 289.89 186.41 288.8 182.27C287.5 177.35 282.13 173.91 277.28 175.44C272.18 177.04 267.39 179.34 265.06 184.98C261.93 184.08 262.22 180.07 259.28 179.18C258.23 179.11 257.02 179.18 255.9 178.92C253.03 178.15 250.82 179.27 249.61 181.6C247.15 186.32 245.91 191.4 247.03 196.76C247.86 200.75 247 204.9 248.11 208.86C246.99 211.25 247.73 213.76 247.44 215.81L249.9 218.94H249.93Z" fill="#343333"/>
<path d="M115.5 106.79C110.84 107.42 107.49 104.97 104.27 102.86C99.1299 99.45 95.5199 94.53 93.1899 88.82C92.3599 86.81 92.0099 84.54 91.6899 82.34C90.8299 76.24 95.6199 71.1 101.49 71.87C103.28 71.14 104.04 69.03 106.18 68.49C108 68.04 109.82 69.35 111.13 68.01C116.2 69.89 120.48 72.44 122.27 77.3C123.64 80.93 124.53 84.83 124.18 88.88C123.54 95.93 121.34 102.22 115.47 106.78H115.5V106.79ZM95.1699 76.66C94.8199 78.73 93.6699 80.9 94.1499 83.33C95.5799 90.57 99.2499 96.51 105.25 100.79C107.94 102.7 110.68 104.9 114.48 104.36C121.47 97.34 122.55 88.85 120.76 79.37C118.89 75.7951 115.916 72.9192 112.28 71.17C110.01 71.3 107.48 70.57 105.41 71.42C103.95 72.48 104.58 74.32 102.86 75.09C100.24 73.85 97.5599 74.04 95.1599 76.69V76.66H95.1699Z" fill="#343333"/>
<path d="M112.4 174.41C110.49 173.75 109.85 171.8 108.92 170.39C105.51 165.13 102.09 159.79 101.36 153.16C102.06 147.64 104.42 146.17 112.46 148.15C114.26 147.03 113.1 145.4 113.2 144.06C114.12 142.37 115.43 142.28 116.9 142.85C119.33 145.15 119.74 148.98 123 150.8C124.34 148.53 122.4 147.2 122.14 145.5C121.84 143.71 121.91 141.83 121.84 140.36C123.8 136.85 127.18 137.26 130.05 136.37C133.53 137.93 136.82 140.55 141.6 139.15C142.53 138.45 143.74 137.23 144.9 135.57C144.64 133.4 145.75 131.23 145.79 128.81C145.79 123 144.6 117.38 143.14 111.83C141.67 106.31 139.21 101.1 137.11 95.81C134.93 90.38 132.51 84.99 131.71 79.18C131.36 76.59 130.37 73.98 131.26 71.1C131.87 69.16 131.07 66.86 131.2 64.66C131.62 58.05 133.28 51.83 135.35 45.57C136.44 42.35 138.29 39.67 140.33 37.17C145.02 31.43 151.15 27.63 158.04 24.73C163.05 22.63 168.22 22.08 173.36 21.89C180.89 21.6 187.79 23.93 192.83 30.09C193.15 30.51 193.5 30.92 193.91 31.24C198.29 34.69 200.01 39.67 201.35 44.71C202.25 47.96 202.44 51.41 202.92 54.76C202.98 55.21 202.66 55.76 202.5 56.23C201.99 57.63 202.7 58.46 203.75 59.03C204.48 59.07 204.86 58.63 204.99 58.15C206.27 53.87 209.43 51.22 212.84 48.63C218.71 44.26 225.22 41.61 232.22 39.57C239.62 37.4 247.15 36.79 254.75 36.92C258.99 36.99 263.43 37.43 267.39 39.16C274.57 42.32 281.14 46.15 286.41 52.43C290.43 57.25 291.81 62.81 293.52 68.33C295.02 73.08 295.89 78.09 295.28 83.07C294.77 87.19 294.9 91.37 294.16 95.42C293.72 97.85 293.52 100.34 293.08 102.76C291.986 108.681 289.867 114.366 286.82 119.56C286.32 120.44 285.67 121.31 285.22 122.26C282.1 128.68 277.32 133.66 271.72 137.96C268.85 140.17 266.27 142.72 263.3 144.86C258.7 148.12 254.17 151.44 249.16 154.06C248.81 154.24 248.33 154.31 248.11 154.6C244.11 159.9 237.64 161.07 232.25 163.95C226.37 167.05 220.02 169.25 213.74 171.42C207.48 173.59 201.13 175.53 194.81 177.52C192.1 178.37 189.35 179.17 186.57 179.84C182.43 180.86 178.27 181.88 174 182.39C170.9 182.78 167.84 183.51 164.8 184.12C160.21 185.02 155.62 184.47 151.02 184.85C148.85 183.1 147.73 180.67 146.55 178.37C144.76 174.83 142.43 171.67 140.3 168.38C139.72 167.49 139.24 166.91 137.87 167.55C141.13 172.98 144.38 178.4 147.47 183.61C147.13 185.11 145.24 184.69 145.72 186.32H139.69C138.615 186.743 137.699 187.491 137.07 188.46C137.04 189.42 137.71 189.83 138.57 190.34C141.86 189 145.44 189.61 149.23 189.48C151.017 193.517 151.734 197.946 151.31 202.34C149.04 205.02 148.75 205.12 145.72 204.19C141.19 202.82 137.68 199.82 134.36 196.69C132.38 194.81 130.15 193.25 128.2 191.43C125.14 188.53 121.24 186.38 119.3 182.43C120.03 182.62 120.76 182.84 121.4 183C122.4 182.43 122.9 181.76 122.61 180.42C120.381 178.134 118.384 175.631 116.65 172.95C115.75 171.48 115.5 169.75 114.48 168.38C111.356 164.208 108.987 159.52 107.48 154.53C107.26 153.73 106.88 152.71 105.38 153.23C105.25 155.11 104.71 157.15 105.58 158.93C106.88 161.62 108 164.43 109.91 166.82C111.714 168.925 112.619 171.654 112.43 174.42H112.4V174.41ZM152.97 176.81C152.3 176.81 152.23 176.27 151.97 175.82C149.37 171.29 146.74 166.76 144.09 162.29C139.625 154.694 133.821 147.969 126.96 142.44C126.44 142.02 125.96 141.54 125.16 142.37C125.56 143.77 126.86 144.54 127.82 145.53C131.72 149.46 135.7 153.32 138.8 157.95C143.26 164.68 147.64 171.51 151.24 178.75C151.72 179.68 152.1 180.67 152.64 181.53C152.97 182.04 153.48 182.65 154.21 181.92C154.41 180.03 152.84 178.6 153 176.75C154.08 176.17 154.82 177.83 155.52 177.45C157.24 176.43 157.18 175.21 156.7 174.1C154.08 168.03 151.53 161.9 147.9 156.35C147.13 155.17 145.91 154.21 144.83 153.25C144.16 152.68 143.39 152.68 142.73 153.64C143.36 154.69 144.03 155.78 144.73 156.86C147.63 161.33 149.07 166.53 151.75 171.13C152.784 172.823 153.233 174.807 153.03 176.78L152.97 176.81ZM268.15 100.47C264.61 103.21 261.35 105.64 259.12 109.15C257.72 111.35 256.12 113.42 254.78 115.69C252.68 119.29 252.93 123.25 253.18 127.12C254.208 128.457 255.436 129.627 256.82 130.59C258.16 131.01 259.89 130.28 260.97 131.39C273.32 126.16 278.07 116.99 275.84 103.89C274.34 100.94 271.09 101.17 268.18 100.47H268.15ZM152.97 46.4C153.51 47.39 153.67 48.25 153.77 49.18C153.813 49.7037 153.959 50.2136 154.202 50.6797C154.444 51.1459 154.777 51.5588 155.182 51.8942C155.586 52.2297 156.054 52.4808 156.556 52.633C157.059 52.7851 157.588 52.8351 158.11 52.78C161.94 52.28 165.83 51.95 169.21 49.68C171.8 47.96 174.16 45.95 177.1 44.71C178.98 43.91 179.84 41.93 180.03 39.86C180.16 38.55 180.03 37.24 180.03 36.12C178.5 33.73 176.2 32.68 174.32 31.27C171.29 32.42 168.26 30.7 165.19 32.58C162.45 34.28 159.25 35.29 157.18 37.94C155.26 40.4 154.38 43.44 152.93 46.44L152.97 46.4ZM241.22 146.65C239.49 146.65 238.12 147.67 236.97 148.91C235.31 150.67 233.27 151.85 231.19 152.94C227.75 154.75 224.17 156.25 220.72 158.07C213.612 161.816 206.153 164.854 198.45 167.14C196.92 167.59 195.67 168.89 194.11 168.8C190.66 168.54 187.41 170.1 183.96 169.76C182.65 169.63 181.34 169.76 180.8 171.51C183.41 172.79 185.94 173.39 188.71 172.44C189.31 172.21 189.99 172.21 190.63 172.12C194.87 171.57 198.93 170.72 203.01 169.05C208.88 166.66 214.82 164.52 220.6 161.87C226.15 159.35 231.42 156.29 236.81 153.45C238.72 152.43 240.74 151.25 242.04 149.11C241.98 148.37 242.34 147.41 241.22 146.65ZM276.29 80.61C271.12 82.31 270.09 84.03 271.02 89.07C273.41 90.41 275.59 90.96 277.57 90.7C280.82 87.76 281.65 85.6 276.29 80.61Z" fill="#DD3535"/>
<path d="M113.14 175.21C114.86 175.15 115.56 176.04 115.5 177.67C113.84 177.67 113.14 176.81 113.14 175.21ZM116.9 179.97C118.4 179.75 118.91 180.45 118.69 181.82C117.88 181.453 117.24 180.792 116.9 179.97Z" fill="#DD3535"/>
<path d="M115.47 177.67C116.77 177.77 116.3 178.72 116.33 179.46C115.5 179.14 115.18 178.53 115.47 177.67ZM112.37 174.42C113.01 174.35 113.27 174.64 113.17 175.25C112.5 175.35 112.31 174.99 112.37 174.42ZM249.93 218.97C249.19 218.04 248.46 217.12 247.47 215.84C247.76 213.8 247.02 211.28 248.14 208.88C247.02 204.93 247.88 200.78 247.06 196.78C245.94 191.43 247.18 186.35 249.64 181.63C250.85 179.3 253.06 178.18 255.93 178.95C257.04 179.24 258.29 179.14 259.31 179.2C262.25 180.1 261.96 184.12 265.09 185.01C267.42 179.39 272.24 177.1 277.31 175.47C282.16 173.94 287.52 177.38 288.83 182.3C289.92 186.42 289.89 190.63 289.73 194.84C289.69 195.84 289.28 196.6 288.93 197.43C287.62 200.53 285.33 203.14 282.86 205.06C279.67 207.51 276.64 210.22 273.16 212.4C267.93 215.62 262.18 217.18 256.47 218.87C254.65 219.42 252.54 218.97 249.96 218.97H249.93ZM287.2 188.84C286.66 187.63 286.22 186.54 285.67 185.52C285.1 184.53 284.91 183.26 283.73 182.65C275.75 182.39 273.35 186.99 277.37 194.81C282.39 197.21 284.81 195.77 287.24 188.84H287.2ZM95.1701 76.66C97.5901 74.01 100.24 73.82 102.86 75.06C104.61 74.3 103.98 72.48 105.41 71.39C107.49 70.53 109.98 71.23 112.28 71.14C115.909 72.8986 118.881 75.772 120.76 79.34C122.56 88.85 121.43 97.31 114.48 104.33C110.71 104.9 107.93 102.67 105.25 100.75C99.2501 96.48 95.5801 90.55 94.1501 83.3C93.6701 80.87 94.8201 78.7 95.1701 76.63V76.66Z" fill="#DD3535"/>
<path d="M152.94 176.81C152.81 178.66 154.34 180.1 154.15 181.98C153.42 182.68 152.9 182.11 152.59 181.6C152.04 180.7 151.63 179.75 151.19 178.82C147.57 171.54 143.23 164.75 138.73 158.02C135.67 153.38 131.65 149.55 127.76 145.6C126.8 144.6 125.49 143.84 125.11 142.44C125.91 141.61 126.38 142.09 126.89 142.5C133.771 148.011 139.581 154.739 144.03 162.35C146.71 166.85 149.33 171.38 151.91 175.88C152.17 176.33 152.24 176.88 152.91 176.88L152.94 176.81Z" fill="#343333"/>
</g>
<defs>
<clipPath id="clip0_100241_861">
<rect width="390" height="260" fill="white"/>
</clipPath>
</defs>
</svg>
