<svg width="491" height="327" viewBox="0 0 491 327" fill="none" xmlns="http://www.w3.org/2000/svg">
<rect width="490.667" height="326.667" fill="#EE5C5C"/>
<path d="M182.5 101L328 126.5L310.5 221L166 205.5L182.5 101Z" fill="#DD3535"/>
<path d="M246.133 25.0667C245.733 25.7333 244.667 36 243.867 47.8667C242.533 66.2667 242.667 69.8667 244.267 71.4667C245.733 73.0667 246.533 73.0667 248.267 71.7333C250 70.2667 250.667 66 251.333 48.4C252.267 27.6 252.267 26.9333 249.6 25.4667C248 24.6667 246.533 24.5333 246.133 25.0667Z" fill="black"/>
<path d="M281.6 28.7999C277.466 33.3332 265.733 71.1999 268.133 72.7999C268.8 73.1999 269.333 74.6666 269.333 76.1333C269.333 82.3999 272.266 77.5999 276.133 64.9333C278.4 57.4666 281.466 47.8666 282.8 43.7333C285.466 35.5999 285.866 30.9332 284.266 28.5332C283.6 27.3332 282.933 27.4666 281.6 28.7999Z" fill="black"/>
<path d="M199.333 31.9999C198.266 33.5999 199.333 41.0666 202.266 52.6666C206.533 70.2666 208.266 74.7999 210 74.1333C210.933 73.8666 212.4 74.2666 213.2 75.0666C216.133 77.9999 215.066 73.1999 205.2 35.5999C204 30.7999 201.066 29.0666 199.333 31.9999Z" fill="black"/>
<path d="M162.4 44.1333C161.467 46.7999 165.2 56.3999 171.867 68.6666C178.133 80.2666 182.133 85.3333 184.933 85.3333C187.733 85.3333 187.2 83.5999 178.667 67.0666C169.867 49.9999 163.467 40.9333 162.4 44.1333Z" fill="black"/>
<path d="M309.733 43.4666C310.133 43.9999 309.6 45.1999 308.533 46.2666C307.467 47.3333 306.933 48.7999 307.333 49.4666C307.867 50.1333 307.6 50.6666 306.933 50.6666C304.8 50.6666 293.067 72.3999 293.867 74.9333C294.133 76.2666 293.867 77.0666 293.2 76.5333C291.867 75.7333 291.6 82.6666 292.8 85.9999C294 88.7999 302.4 74.6666 308.8 59.0666C313.867 46.7999 314.4 42.6666 311.067 42.6666C309.867 42.6666 309.2 43.0666 309.733 43.4666Z" fill="black"/>
<path d="M328.8 72.1333C312.266 89.3333 310.8 91.2 312.933 92.8C314.266 93.7333 315.733 94.6666 316.133 94.6666C316.933 94.6666 332.8 78.5333 344.533 65.7333C349.333 60.5333 350.666 58.1333 350 56.1333C349.6 54.5333 348.666 53.3333 348 53.3333C347.466 53.3333 338.8 61.8666 328.8 72.1333Z" fill="black"/>
<path d="M126.133 62.5333C124.667 64.9333 127.733 70.1333 132.933 74C135.733 76 138.667 78.4 139.333 79.2C140.133 80.1333 145.6 84.8 151.467 89.7333C162.267 98.6667 168.933 101.2 168.933 96.5333C168.933 94 154.267 80.2667 139.867 69.4667C128.8 61.2 127.333 60.4 126.133 62.5333Z" fill="black"/>
<path d="M369.466 76.1333C367.066 77.6 358.8 83.3333 350.933 88.9333C343.066 94.5333 336.533 99.2 336.4 99.3333C336.133 99.4667 335.6 101.467 335.2 103.733C334.666 106.533 334.8 108 335.866 108C338.933 108 377.333 78.4 377.333 76C377.333 73.6 373.466 73.7333 369.466 76.1333Z" fill="black"/>
<path d="M108.4 95.6C107.467 95.8667 107.2 97.0667 107.6 98.1333C108.533 100.8 153.067 123.067 155.467 122.133C156.533 121.733 157.333 120.133 157.333 118.667C157.333 116.4 153.867 114.133 138.4 106.667C119.333 97.6 111.333 94.6667 108.4 95.6Z" fill="black"/>
<path d="M179.466 100.267C179.066 102 178.533 105.467 178 108C177.6 110.533 175.866 121.067 174.133 131.333C171.333 147.333 165.466 186.4 163.333 202.933C162.533 209.067 160.8 208.533 191.333 211.333C234.266 215.2 256.8 217.467 284.533 220.667C300 222.533 312.666 223.733 312.933 223.6C313.333 223.067 318.266 197.733 319.866 187.333C321.466 177.2 330.533 129.333 331.466 126.4C331.866 125.067 331.2 124 329.733 123.467C327.333 122.667 298.8 117.467 263.333 111.333C252.4 109.467 237.066 106.667 229.333 105.333C216.266 102.933 182 97.3334 180.666 97.3334C180.266 97.3334 179.733 98.6667 179.466 100.267ZM200.4 105.867C207.066 106.933 214.8 108.133 217.333 108.4C226.8 109.733 315.733 125.467 323.733 127.333C325.333 127.733 326.666 128.533 326.666 129.067C326.666 130.933 272.666 166.667 269.866 166.667C269.6 166.667 269.333 165.467 269.333 164C269.333 162.533 268.133 160.133 266.533 158.533C263.066 155.067 258 156 253.6 160.933L250.533 164.267L247.6 161.6C242.666 157.067 237.733 155.733 233.466 157.867C229.866 159.867 229.733 159.733 224.533 152.933C221.733 149.067 212.4 137.333 203.866 126.667C187.866 106.533 186 104 187.333 104C187.733 104 193.6 104.8 200.4 105.867ZM202 129.867C210.8 140.8 220.533 152.933 223.466 156.667C227.2 161.2 229.466 165.867 230.4 170.267C233.333 183.867 242.266 198.667 247.333 198.667C248.4 198.667 250.4 197.6 251.733 196.267C257.066 190.667 264.8 180.667 267.066 176.533C268.533 173.6 272.933 169.733 279.466 165.733C284.933 162.133 297.333 154.4 306.933 148.267C316.4 142.133 324.666 137.467 325.066 137.867C325.733 138.667 320.8 165.6 318.666 172.667C318 174.8 316.133 182.933 314.666 190.667C309.333 218.133 309.6 217.333 304.8 217.333C302.4 217.333 297.2 216.8 293.2 216C289.2 215.333 269.2 213.2 248.666 211.467C228.133 209.6 205.066 207.467 197.333 206.667C189.6 205.867 180.133 204.933 176.133 204.667C172.266 204.4 168.933 204 168.666 203.733C168.533 203.467 169.2 198.533 170.133 192.667C171.066 186.8 173.066 173.6 174.533 163.333C182.533 110 183.066 106.4 184.533 108.267C185.333 109.2 193.2 119.067 202 129.867Z" fill="black"/>
<path d="M379.333 116.933C369.733 118.133 339.6 126.133 343.2 126.533C343.867 126.667 343.6 127.6 342.667 128.667C341.2 130.4 341.733 130.667 345.6 130.667C356.267 130.667 386.667 121.2 386.667 117.867C386.667 116.8 385.867 116.133 385.067 116.133C384.133 116.267 381.6 116.667 379.333 116.933Z" fill="black"/>
<path d="M101.733 125.067C98.5333 125.6 96.5333 129.333 98.8 130.667C99.6 131.2 104.933 132.4 110.533 133.333C116.133 134.133 125.733 135.733 132 136.8C145.467 139.067 150.667 139.2 150.667 137.333C150.667 136.533 150.133 136 149.333 136C148.667 136 148.4 135.2 148.8 134.267C149.333 132.933 146.267 131.867 137.067 130.133C115.067 126.133 104.8 124.667 101.733 125.067Z" fill="black"/>
<path d="M366.133 148.933C366 149.067 360.667 149.333 354.267 149.467C345.467 149.6 342.667 150.133 342.667 151.467C342.667 152.533 342.133 153.333 341.333 153.333C340.667 153.333 340 153.867 340 154.533C340 156.8 367.067 157.733 381.6 156C394.4 154.533 403.333 152.133 396.667 152C394.4 152 394.4 151.733 396 150.667C397.733 149.467 397.733 149.333 396 149.067C393.467 148.667 366.533 148.533 366.133 148.933Z" fill="black"/>
<path d="M126.933 154.667C101.733 158 100.667 158.267 98.9334 162C97.6001 164.933 97.7334 165.2 101.067 165.6C107.733 166.4 152 158.667 152 156.667C152 155.733 147.867 152 146.933 152.133C146.4 152.267 137.333 153.333 126.933 154.667Z" fill="black"/>
<path d="M143.333 174.533C130 179.2 102.933 191.467 99.7332 194.267C92.9332 200.4 101.733 199.6 119.733 192.533C134.533 186.8 153.467 178.8 154.4 178C155.2 177.333 152 172 150.933 172.133C150.4 172.267 147.067 173.333 143.333 174.533Z" fill="black"/>
<path d="M342 180C340.4 182.533 342.533 183.467 355.6 186.533C370 189.867 380.266 190.933 386.533 189.733L391.066 188.933L385.866 186.4C375.6 181.333 344 176.667 342 180Z" fill="black"/>
<path d="M144.8 200.667C140.533 203.2 136.666 205.067 136.133 204.8C135.6 204.4 133.733 205.467 132 206.933C130.133 208.4 129.466 209.067 130.533 208.533C131.733 207.867 132.133 208.133 131.466 209.2C130.933 210 129.866 210.4 129.2 210C127.866 209.067 119.466 214.533 120.533 215.6C120.8 216 119.066 218 116.533 220.267C106.8 228.8 114 228.4 128 219.733C141.866 210.933 153.333 201.333 153.333 198.533C153.333 197.2 153.2 196 152.933 196C152.666 196 149.066 198.133 144.8 200.667Z" fill="black"/>
<path d="M336.133 202.133C335.2 203.333 334.933 204.667 335.467 205.333C336.533 206.267 348.4 214.533 364.8 225.6C370.267 229.333 381.733 234.667 384.267 234.667C387.867 234.667 378 225.467 362.933 214.933C339.867 198.8 339.333 198.533 336.133 202.133Z" fill="black"/>
<path d="M149.333 239.333C139.733 249.867 132.133 259.2 132.667 260C133.067 260.8 134.133 260.933 134.933 260.533C135.733 260 136.8 260.533 137.467 261.467C138.8 263.467 140.8 261.6 157.733 242.4C163.333 236.133 166.533 231.467 165.867 230.533C165.333 229.467 165.467 229.333 166.4 229.867C167.333 230.4 168.667 229.467 169.467 227.467C171.067 224 170.4 220 168.133 220C167.467 220 159.067 228.667 149.333 239.333Z" fill="black"/>
<path d="M321.6 229.467C321.866 232.667 325.066 236.8 336.8 248.8C350.533 262.933 351.866 264 355.066 262.8C356.933 262.133 358.8 261.867 359.333 262.4C359.866 262.933 359.733 262.133 358.933 260.667C354.933 252.933 326 225.333 322 225.333C321.6 225.333 321.466 227.2 321.6 229.467Z" fill="black"/>
<path d="M187.867 237.6C184.267 243.467 170.8 271.2 168.533 277.6C166.8 282.667 167.2 286.667 169.467 286.667C170.133 286.667 170.667 286.133 170.667 285.333C170.667 284.667 171.333 284.133 172.133 284.4C174.267 284.8 177.2 279.733 186.933 258C194 242.533 195.2 238.8 194 236.267C192.267 232.267 191.067 232.533 187.867 237.6Z" fill="black"/>
<path d="M225.2 242.8C223.333 246.267 217.333 282.533 217.333 290C217.333 296.667 218.933 299.6 221.066 297.067C224.266 293.2 231.733 246.933 229.866 242.133C228.8 239.2 227.066 239.467 225.2 242.8Z" fill="black"/>
<path d="M258.533 246.267C258.533 246.933 258.267 248.533 257.867 250C257.2 253.067 259.6 274.267 261.467 282C263.6 290.533 268 298.533 270.267 297.733C271.6 297.2 271.867 296.133 271.2 294.133C270.667 292.667 270.267 289.067 270.133 286.4C270.133 283.733 269.733 281.733 269.2 282.133C267.733 282.933 266.133 271.2 267.467 269.2C268 268.133 267.867 267.867 266.933 268.533C265.867 269.2 265.2 268 265.067 265.067C265.067 262.667 264.8 259.2 264.8 257.333C264.533 253.067 261.333 245.333 259.867 245.333C259.2 245.333 258.667 245.733 258.533 246.267Z" fill="black"/>
<path d="M293.333 246.4C293.333 247.333 292.8 247.733 292 247.333C286.4 243.867 299.866 266.933 310.933 279.867C315.466 285.2 318.266 285.333 318 280.133C317.733 274.667 293.6 241.6 293.333 246.4Z" fill="black"/>
</svg>
